<svg xmlns="http://www.w3.org/2000/svg" viewBox="0 0 511.95 512.03"><g id="ed6c3c07-f64e-4937-a1f3-7683f5de3d96" data-name="Capa 2"><g id="f6fcc276-9cc5-43b1-ad53-322af4a187a6" data-name="Capa 1"><path d="M511.2,387,488,487.81A31.08,31.08,0,0,1,457.49,512C205.2,512,0,306.81,0,54.51A31.06,31.06,0,0,1,24.22,24.06L125,.81A31.36,31.36,0,0,1,160.8,18.93l46.52,108.5a31.29,31.29,0,0,1-9,36.45L144.5,207.11A349.66,349.66,0,0,0,304,366.61l44.08-53.8a31.12,31.12,0,0,1,36.47-9l108.5,46.51C506.1,357.21,514.6,372.41,511.2,387Z" style="fill:#fff"/><circle cx="395.3" cy="76.46" r="13.48" style="fill:#fff"/><path d="M412.15,170.83h-33.7a10.11,10.11,0,0,1,0-20.22h6.74v-27h-3.37a10.11,10.11,0,0,1,0-20.22H395.3a10.11,10.11,0,0,1,10.11,10.11v37.07h6.74a10.11,10.11,0,1,1,0,20.22Z" style="fill:#fff"/><path d="M395.3,233.21a116.78,116.78,0,0,1-82.77-34.6c-4.87-.07-16.17,1.22-24,2.11-8.39.94-17.06,1.92-23.95,2.27-7.15.36-18,.92-21.62-7.5-3.91-9,3.64-17.06,21.9-36.54,5.55-5.93,13.61-14.52,16.48-18.63A116.31,116.31,0,1,1,395.3,233.21Zm-83.23-54.57c6.7,0,10.2,1.17,12.93,4.09a95.41,95.41,0,0,0,70.3,30.48,96.17,96.17,0,1,0-93.81-74.43c1.84,7.92-3.83,14.44-22,33.85-2.75,2.93-6.09,6.5-9.15,9.89,5.47-.49,11.44-1.17,16-1.68C298.26,179.49,306.33,178.64,312.07,178.64Z" style="fill:#fff"/></g></g></svg>